HIERARCHY
ROOT Hips
{
	OFFSET 0.000000 97.167313 0.000000
	CHANNELS 6 Xposition Yposition Zposition Xrotation Yrotation Zrotation
	JOINT Spine
	{
		OFFSET 0.000000 13.784798 0.064400
		CHANNELS 3 Xrotation Yrotation Zrotation
		JOINT Spine1
		{
			OFFSET 0.000000 12.037903 0.404700
			CHANNELS 3 Xrotation Yrotation Zrotation
			JOINT Spine2
			{
				OFFSET 0.000000 17.795601 0.420200
				CHANNELS 3 Xrotation Yrotation Zrotation
				JOINT Neck
				{
					OFFSET 0.000000 39.131302 11.954600
					CHANNELS 3 Xrotation Yrotation Zrotation
					JOINT Head
					{
						OFFSET 0.000000 14.456192 15.627699
						CHANNELS 3 Xrotation Yrotation Zrotation
						JOINT HeadTop_End
						{
							OFFSET 0.000000 15.703506 7.603401
							CHANNELS 3 Xrotation Yrotation Zrotation
							End Site
							{
								OFFSET 0.000000 17.447403 0.000000
							}
						}
					}
				}
				JOINT LeftShoulder
				{
					OFFSET 17.399500 24.608795 1.168800
					CHANNELS 3 Xrotation Yrotation Zrotation
					JOINT LeftArm
					{
						OFFSET 18.980635 5.765305 1.818600
						CHANNELS 3 Xrotation Yrotation Zrotation
						JOINT LeftForeArm
						{
							OFFSET 49.290169 0.000000 0.000000
							CHANNELS 3 Xrotation Yrotation Zrotation
							JOINT LeftHand
							{
								OFFSET 31.562012 0.000000 0.000000
								CHANNELS 3 Xrotation Yrotation Zrotation
								JOINT LeftHandThumb1
								{
									OFFSET 6.133995 -4.388519 7.076070
									CHANNELS 3 Xrotation Yrotation Zrotation
									JOINT LeftHandThumb2
									{
										OFFSET 6.037666 -3.485840 3.485847
										CHANNELS 3 Xrotation Yrotation Zrotation
										JOINT LeftHandThumb3
										{
											OFFSET 6.496506 -3.750763 3.750761
											CHANNELS 3 Xrotation Yrotation Zrotation
											JOINT LeftHandThumb4
											{
												OFFSET 5.616882 -3.242905 3.242910
												CHANNELS 3 Xrotation Yrotation Zrotation
												End Site
												{
													OFFSET -1.254608 7.132141 0.375429
												}
											}
										}
									}
								}
								JOINT LeftHandPinky1
								{
									OFFSET 18.920792 -0.453171 -11.426712
									CHANNELS 3 Xrotation Yrotation Zrotation
									JOINT LeftHandPinky2
									{
										OFFSET 4.919586 0.000000 0.000000
										CHANNELS 3 Xrotation Yrotation Zrotation
										JOINT LeftHandPinky3
										{
											OFFSET 5.233047 0.000000 0.000000
											CHANNELS 3 Xrotation Yrotation Zrotation
											JOINT LeftHandPinky4
											{
												OFFSET 5.571716 0.000000 0.000000
												CHANNELS 3 Xrotation Yrotation Zrotation
												End Site
												{
													OFFSET -3.459808 4.342407 -0.466164
												}
											}
										}
									}
								}
								JOINT LeftHandRing1
								{
									OFFSET 22.726120 -0.094986 -6.500475
									CHANNELS 3 Xrotation Yrotation Zrotation
									JOINT LeftHandRing2
									{
										OFFSET 6.408615 0.000000 0.000000
										CHANNELS 3 Xrotation Yrotation Zrotation
										JOINT LeftHandRing3
										{
											OFFSET 6.150223 0.000000 0.000000
											CHANNELS 3 Xrotation Yrotation Zrotation
											JOINT LeftHandRing4
											{
												OFFSET 6.145386 0.000000 0.000000
												CHANNELS 3 Xrotation Yrotation Zrotation
												End Site
												{
													OFFSET -3.671402 4.923981 -0.202372
												}
											}
										}
									}
								}
								JOINT LeftHandMiddle1
								{
									OFFSET 23.373947 0.000000 0.000001
									CHANNELS 3 Xrotation Yrotation Zrotation
									JOINT LeftHandMiddle2
									{
										OFFSET 6.996567 0.000000 0.000000
										CHANNELS 3 Xrotation Yrotation Zrotation
										JOINT LeftHandMiddle3
										{
											OFFSET 7.015945 0.000000 0.000000
											CHANNELS 3 Xrotation Yrotation Zrotation
											JOINT LeftHandMiddle4
											{
												OFFSET 7.721573 0.000000 0.000000
												CHANNELS 3 Xrotation Yrotation Zrotation
												End Site
												{
													OFFSET -4.651108 6.158463 0.251582
												}
											}
										}
									}
								}
								JOINT LeftHandIndex1
								{
									OFFSET 21.310577 -0.490082 6.209344
									CHANNELS 3 Xrotation Yrotation Zrotation
									JOINT LeftHandIndex2
									{
										OFFSET 7.536453 0.000000 0.000000
										CHANNELS 3 Xrotation Yrotation Zrotation
										JOINT LeftHandIndex3
										{
											OFFSET 7.512344 0.000000 0.000000
											CHANNELS 3 Xrotation Yrotation Zrotation
											JOINT LeftHandIndex4
											{
												OFFSET 10.212402 0.000000 0.000001
												CHANNELS 3 Xrotation Yrotation Zrotation
												End Site
												{
													OFFSET -5.180801 8.690506 1.388433
												}
											}
										}
									}
								}
							}
						}
					}
				}
				JOINT RightShoulder
				{
					OFFSET -17.399500 24.608795 1.168800
					CHANNELS 3 Xrotation Yrotation Zrotation
					JOINT RightArm
					{
						OFFSET -18.980635 5.765305 1.818600
						CHANNELS 3 Xrotation Yrotation Zrotation
						JOINT RightForeArm
						{
							OFFSET -49.290169 0.000000 0.000000
							CHANNELS 3 Xrotation Yrotation Zrotation
							JOINT RightHand
							{
								OFFSET -31.562012 0.000000 0.000000
								CHANNELS 3 Xrotation Yrotation Zrotation
								JOINT RightHandThumb1
								{
									OFFSET -6.133995 -4.388519 7.076070
									CHANNELS 3 Xrotation Yrotation Zrotation
									JOINT RightHandThumb2
									{
										OFFSET -6.037666 -3.485840 3.485847
										CHANNELS 3 Xrotation Yrotation Zrotation
										JOINT RightHandThumb3
										{
											OFFSET -6.496506 -3.750763 3.750761
											CHANNELS 3 Xrotation Yrotation Zrotation
											JOINT RightHandThumb4
											{
												OFFSET -5.616882 -3.242905 3.242910
												CHANNELS 3 Xrotation Yrotation Zrotation
												End Site
												{
													OFFSET 1.254608 7.132141 0.375429
												}
											}
										}
									}
								}
								JOINT RightHandIndex1
								{
									OFFSET -21.310577 -0.490082 6.209344
									CHANNELS 3 Xrotation Yrotation Zrotation
									JOINT RightHandIndex2
									{
										OFFSET -7.536453 0.000000 0.000000
										CHANNELS 3 Xrotation Yrotation Zrotation
										JOINT RightHandIndex3
										{
											OFFSET -7.512344 0.000000 0.000000
											CHANNELS 3 Xrotation Yrotation Zrotation
											JOINT RightHandIndex4
											{
												OFFSET -10.212402 0.000000 0.000001
												CHANNELS 3 Xrotation Yrotation Zrotation
												End Site
												{
													OFFSET 5.180801 8.690506 1.388433
												}
											}
										}
									}
								}
								JOINT RightHandMiddle1
								{
									OFFSET -23.373947 0.000000 0.000001
									CHANNELS 3 Xrotation Yrotation Zrotation
									JOINT RightHandMiddle2
									{
										OFFSET -6.996567 0.000000 0.000000
										CHANNELS 3 Xrotation Yrotation Zrotation
										JOINT RightHandMiddle3
										{
											OFFSET -7.015945 0.000000 0.000000
											CHANNELS 3 Xrotation Yrotation Zrotation
											JOINT RightHandMiddle4
											{
												OFFSET -7.721573 0.000000 0.000000
												CHANNELS 3 Xrotation Yrotation Zrotation
												End Site
												{
													OFFSET 4.651108 6.158463 0.251582
												}
											}
										}
									}
								}
								JOINT RightHandRing1
								{
									OFFSET -22.726120 -0.094986 -6.500475
									CHANNELS 3 Xrotation Yrotation Zrotation
									JOINT RightHandRing2
									{
										OFFSET -6.408615 0.000000 0.000000
										CHANNELS 3 Xrotation Yrotation Zrotation
										JOINT RightHandRing3
										{
											OFFSET -6.150223 0.000000 0.000000
											CHANNELS 3 Xrotation Yrotation Zrotation
											JOINT RightHandRing4
											{
												OFFSET -6.145386 0.000000 0.000000
												CHANNELS 3 Xrotation Yrotation Zrotation
												End Site
												{
													OFFSET 3.671402 4.923981 -0.202372
												}
											}
										}
									}
								}
								JOINT RightHandPinky1
								{
									OFFSET -18.920792 -0.453171 -11.426712
									CHANNELS 3 Xrotation Yrotation Zrotation
									JOINT RightHandPinky2
									{
										OFFSET -4.919586 0.000000 0.000000
										CHANNELS 3 Xrotation Yrotation Zrotation
										JOINT RightHandPinky3
										{
											OFFSET -5.233047 0.000000 0.000000
											CHANNELS 3 Xrotation Yrotation Zrotation
											JOINT RightHandPinky4
											{
												OFFSET -5.571716 0.000000 0.000000
												CHANNELS 3 Xrotation Yrotation Zrotation
												End Site
												{
													OFFSET 3.459808 4.342407 -0.466164
												}
											}
										}
									}
								}
							}
						}
					}
				}
			}
		}
	}
	JOINT LeftUpLeg
	{
		OFFSET 19.899099 -7.885101 -3.429500
		CHANNELS 3 Xrotation Yrotation Zrotation
		JOINT LeftLeg
		{
			OFFSET 1.745560 -36.997807 10.304700
			CHANNELS 3 Xrotation Yrotation Zrotation
			JOINT LeftFoot
			{
				OFFSET -1.745558 -29.803308 -13.615400
				CHANNELS 3 Xrotation Yrotation Zrotation
				JOINT LeftToeBase
				{
					OFFSET 1.181900 -18.539904 15.226099
					CHANNELS 3 Xrotation Yrotation Zrotation
					JOINT LeftToe_End
					{
						OFFSET -0.863701 1.402801 16.534700
						CHANNELS 3 Xrotation Yrotation Zrotation
						End Site
						{
							OFFSET 0.000000 16.616566 0.000000
						}
					}
				}
			}
		}
	}
	JOINT RightUpLeg
	{
		OFFSET -19.899099 -7.885101 -3.429500
		CHANNELS 3 Xrotation Yrotation Zrotation
		JOINT RightLeg
		{
			OFFSET -1.745560 -36.997807 10.304700
			CHANNELS 3 Xrotation Yrotation Zrotation
			JOINT RightFoot
			{
				OFFSET 1.745558 -29.803308 -13.615400
				CHANNELS 3 Xrotation Yrotation Zrotation
				JOINT RightToeBase
				{
					OFFSET -1.181900 -18.539904 15.226099
					CHANNELS 3 Xrotation Yrotation Zrotation
					JOINT RightToe_End
					{
						OFFSET 0.863701 1.402801 16.534700
						CHANNELS 3 Xrotation Yrotation Zrotation
						End Site
						{
							OFFSET 0.000000 16.616566 0.000000
						}
					}
				}
			}
		}
	}
}
MOTION
Frames: 4
Frame Time: 0.033333
-1.088668 86.059578 1.693612 5.208612 -21.020206 0.943126 23.111391 4.265111 -0.553187 3.699087 1.240284 -0.840913 3.692199 1.313815 -0.845960 -12.698344 1.122662 2.284731 -14.088188 7.830451 -3.299426 -0.000000 -0.000000 0.000000 7.812689 -20.949845 9.748521 -32.822508 -13.211412 -85.330052 -1.595861 -43.206178 1.007213 -23.511828 -10.866502 -12.598888 -7.471938 1.860681 -7.166924 30.987038 27.310508 -4.510883 83.254637 13.297937 -10.940296 0.000002 0.000001 0.000002 -17.080777 22.136850 -87.150133 0.011718 0.023178 -58.127273 0.004934 0.007734 -26.297185 -0.000000 0.000001 0.000001 -6.436866 23.133427 -89.739834 0.012862 0.975917 -51.002996 6.771116 8.412946 -40.137030 -0.000000 0.000000 0.000005 1.623333 16.580942 -84.691272 0.018016 0.022055 -72.884860 -1.296721 -0.092186 -19.943283 -0.000002 -0.000000 0.000004 -4.707160 11.366721 -75.716547 -0.816391 3.073988 -46.874639 -4.740639 0.379118 -78.699455 -0.000001 0.000003 0.000001 13.916971 27.241154 -23.493045 -40.988594 17.662748 84.577802 -0.036369 57.217495 -13.854743 -30.552317 16.096587 8.636270 9.347164 2.810546 -11.364496 16.169107 -43.265994 15.843570 32.491787 -44.566783 5.661130 0.000004 -0.000001 0.000002 17.076807 -0.396537 31.924345 -0.204404 -0.284221 112.811543 1.553143 -1.173031 33.344560 -0.000000 -0.000001 -0.000001 9.205488 -5.035912 102.738073 0.014965 -0.019203 61.018499 1.871345 0.346189 31.443773 -0.000001 0.000000 -0.000004 5.569141 -8.935241 107.329087 0.547964 -0.005766 41.263707 0.739124 0.837842 51.122241 -0.000002 0.000001 -0.000003 6.511230 -17.148221 98.228004 0.007406 -0.015747 43.845747 0.011246 -0.024789 57.754550 -0.000001 -0.000000 0.000002 -35.893512 1.735117 12.727191 30.867216 2.913100 0.600533 1.378312 1.411469 -8.464182 -0.359420 -1.379834 -0.238576 -0.000000 0.000000 0.000000 -8.131338 -10.848289 -15.450100 28.346853 -3.612496 2.769238 -21.641140 -5.287970 13.815614 -1.226106 1.216294 -0.216676 0.000000 0.000001 -0.000000 
0.739151 86.412094 2.824570 5.142788 -27.528825 1.333702 22.230101 5.463907 0.945094 4.307592 1.367062 -0.817024 4.300738 1.471951 -0.827786 -15.168148 1.140087 -0.393057 -10.653154 5.476710 -1.654844 -0.000001 -0.000000 -0.000000 7.682248 -19.703293 8.538719 -35.320988 -14.214790 -87.464438 -2.288917 -42.183627 1.568362 -22.796088 -11.895044 -12.751313 -7.471934 1.860679 -7.166922 30.987028 27.310511 -4.510885 83.254631 13.297940 -10.940302 0.000002 -0.000000 -0.000002 -17.080771 22.136843 -87.150140 0.011717 0.023178 -58.127273 0.004937 0.007732 -26.297190 0.000003 0.000003 -0.000000 -6.436864 23.133429 -89.739834 0.012859 0.975919 -51.002986 6.771116 8.412944 -40.137026 -0.000003 0.000003 0.000002 1.623330 16.580936 -84.691286 0.018013 0.022055 -72.884867 -1.296716 -0.092187 -19.943288 -0.000000 -0.000001 0.000001 -4.707162 11.366726 -75.716540 -0.816391 3.073984 -46.874639 -4.740636 0.379117 -78.699455 -0.000000 0.000000 -0.000004 14.957653 25.592381 -25.156377 -41.339184 18.027745 82.527024 0.007795 59.726603 -11.748269 -30.182999 15.198231 7.426423 9.347169 2.810542 -11.364493 16.169098 -43.265994 15.843568 32.491784 -44.566790 5.661128 0.000004 0.000000 -0.000000 17.076808 -0.396541 31.924349 -0.204405 -0.284220 112.811543 1.553142 -1.173027 33.344557 -0.000001 -0.000003 -0.000002 9.205489 -5.035914 102.738073 0.014962 -0.019202 61.018506 1.871345 0.346184 31.443773 -0.000000 -0.000000 -0.000007 5.569142 -8.935242 107.329087 0.547965 -0.005764 41.263707 0.739124 0.837838 51.122245 -0.000002 -0.000004 -0.000005 6.511235 -17.148228 98.228004 0.007402 -0.015743 43.845747 0.011247 -0.024794 57.754550 0.000000 0.000001 0.000002 -33.962972 7.102865 13.569902 33.005960 3.609119 0.506708 -2.976636 2.084217 -6.054266 -0.437425 -0.533335 -1.132962 -0.000000 -0.000000 -0.000000 -11.598954 -10.082780 -17.447657 27.039454 1.524726 2.200274 -18.021017 -4.410662 13.392301 -1.487106 1.772436 0.148187 -0.000000 -0.000002 0.000000 
2.670071 86.482567 4.061932 5.701109 -33.947188 2.027137 20.448079 6.782301 2.475998 5.084035 1.524193 -0.702958 5.078170 1.668637 -0.718934 -17.654125 0.818877 -2.825499 -6.711987 2.623562 -0.058621 -0.000001 -0.000001 -0.000000 7.722862 -20.485855 8.736180 -35.756163 -14.438977 -86.890791 -2.229344 -44.255302 -0.690205 -24.529074 -12.521143 -9.616193 -7.471937 1.860684 -7.166924 30.987038 27.310511 -4.510877 83.254631 13.297939 -10.940293 0.000001 -0.000000 -0.000003 -17.080778 22.136846 -87.150133 0.011717 0.023178 -58.127273 0.004937 0.007730 -26.297185 -0.000001 0.000000 -0.000006 -6.436868 23.133427 -89.739834 0.012860 0.975923 -51.002993 6.771117 8.412949 -40.137026 -0.000003 0.000002 -0.000002 1.623325 16.580936 -84.691279 0.018015 0.022054 -72.884860 -1.296717 -0.092187 -19.943288 -0.000001 0.000001 0.000004 -4.707167 11.366727 -75.716540 -0.816391 3.073987 -46.874639 -4.740638 0.379121 -78.699455 -0.000001 0.000003 0.000001 16.289330 22.859081 -27.800233 -42.667502 18.857613 81.340129 0.006476 62.403702 -9.997280 -30.696257 14.238296 6.037319 9.347169 2.810544 -11.364495 16.169100 -43.265994 15.843566 32.491780 -44.566786 5.661129 0.000002 0.000001 0.000001 17.076808 -0.396535 31.924345 -0.204400 -0.284218 112.811550 1.553140 -1.173030 33.344563 -0.000001 -0.000001 0.000001 9.205493 -5.035913 102.738073 0.014963 -0.019202 61.018506 1.871344 0.346188 31.443773 0.000002 0.000000 -0.000008 5.569142 -8.935240 107.329087 0.547961 -0.005765 41.263707 0.739124 0.837835 51.122241 -0.000001 0.000001 -0.000003 6.511233 -17.148223 98.228004 0.007402 -0.015743 43.845747 0.011245 -0.024791 57.754550 0.000005 0.000004 -0.000000 -32.429072 11.357303 14.349153 35.150015 6.042947 -0.029809 -7.132533 2.107114 -4.596621 -0.434182 0.169238 -1.747867 0.000000 0.000000 0.000000 -15.657908 -8.917286 -18.945212 26.141881 5.652846 1.773439 -14.584962 -3.695243 12.832705 -1.737459 2.052375 0.765911 0.000000 0.000001 -0.000000 
4.797359 86.875557 5.226223 6.193368 -39.485911 2.826090 19.439555 6.644927 3.470338 5.959286 1.462369 -0.409189 5.947196 1.650594 -0.411489 -21.557865 0.525255 -5.279527 -1.921372 -0.182148 2.399292 0.000000 -0.000001 -0.000001 7.840816 -18.996940 8.090620 -36.803590 -15.190773 -84.827555 -1.505240 -47.443177 -4.876258 -26.308389 -12.951747 -5.412100 -7.471942 1.860681 -7.166924 30.987031 27.310515 -4.510882 83.254631 13.297938 -10.940301 0.000001 -0.000001 -0.000001 -17.080773 22.136841 -87.150140 0.011720 0.023178 -58.127266 0.004932 0.007736 -26.297186 -0.000003 0.000001 -0.000000 -6.436868 23.133424 -89.739834 0.012862 0.975922 -51.002986 6.771120 8.412945 -40.137030 -0.000003 -0.000002 -0.000000 1.623330 16.580933 -84.691279 0.018017 0.022054 -72.884860 -1.296720 -0.092188 -19.943290 -0.000002 0.000000 0.000001 -4.707165 11.366727 -75.716547 -0.816393 3.073987 -46.874632 -4.740640 0.379119 -78.699455 -0.000005 -0.000000 0.000001 17.133869 19.938285 -30.939886 -45.324739 20.268146 81.675115 0.055870 64.727374 -9.618173 -31.197729 13.358599 5.117298 9.347170 2.810546 -11.364494 16.169100 -43.265994 15.843568 32.491780 -44.566783 5.661128 0.000001 -0.000002 0.000002 17.076808 -0.396536 31.924349 -0.204406 -0.284221 112.811543 1.553143 -1.173027 33.344557 -0.000000 -0.000001 -0.000001 9.205492 -5.035914 102.738073 0.014965 -0.019202 61.018499 1.871344 0.346185 31.443773 -0.000000 -0.000000 -0.000004 5.569144 -8.935239 107.329087 0.547964 -0.005767 41.263707 0.739126 0.837833 51.122241 -0.000001 -0.000002 -0.000005 6.511234 -17.148226 98.228004 0.007400 -0.015743 43.845744 0.011243 -0.024787 57.754550 0.000002 0.000003 -0.000001 -30.293590 14.548709 14.040591 35.701723 9.259788 -0.747750 -9.987114 2.041172 -3.355691 -0.317829 0.918673 -2.445286 0.000000 0.000001 0.000000 -17.443784 -8.648366 -20.821379 24.167453 2.932944 1.541175 -10.274306 -4.182383 14.395469 0.086947 1.206425 1.461596 0.000000 0.000001 0.000000 
